<svg width="32" height="32" viewBox="0 0 32 32" fill="none" xmlns="http://www.w3.org/2000/svg">
<g clip-path="url(#clip0_136_626)">
<path fill-rule="evenodd" clip-rule="evenodd" d="M0 16C0 7.16347 7.16347 0 16 0C24.8365 0 32 7.16347 32 16C32 24.8365 24.8365 32 16 32C7.16347 32 0 24.8365 0 16ZM16.0008 7.46667C13.6833 7.46667 13.3924 7.4768 12.4822 7.5182C11.5737 7.5598 10.9537 7.70367 10.4111 7.91467C9.8498 8.1326 9.37373 8.4242 8.8994 8.89867C8.42473 9.373 8.13313 9.84907 7.91447 10.4101C7.70293 10.9529 7.55893 11.5732 7.51807 12.4813C7.47733 13.3915 7.46667 13.6825 7.46667 16.0001C7.46667 18.3176 7.477 18.6076 7.5182 19.5178C7.56 20.4263 7.7038 21.0463 7.91467 21.5889C8.1328 22.1502 8.42433 22.6263 8.89887 23.1006C9.373 23.5753 9.84907 23.8675 10.41 24.0855C10.9529 24.2965 11.5732 24.4403 12.4815 24.4819C13.3917 24.5234 13.6824 24.5335 15.9997 24.5335C18.3175 24.5335 18.6074 24.5234 19.5177 24.4819C20.4261 24.4403 21.0469 24.2965 21.5899 24.0855C22.1509 23.8675 22.6263 23.5753 23.1004 23.1006C23.5751 22.6263 23.8667 22.1502 24.0853 21.5891C24.2951 21.0463 24.4391 20.4261 24.4818 19.518C24.5227 18.6077 24.5333 18.3176 24.5333 16.0001C24.5333 13.6825 24.5227 13.3917 24.4818 12.4815C24.4391 11.573 24.2951 10.9529 24.0853 10.4103C23.8667 9.84907 23.5751 9.373 23.1004 8.89867C22.6257 8.424 22.1511 8.13247 21.5893 7.91467C21.0453 7.70367 20.4249 7.5598 19.5164 7.5182C18.6061 7.4768 18.3164 7.46667 15.9981 7.46667H16.0008Z" fill="#FAF4EA"/>
<path fill-rule="evenodd" clip-rule="evenodd" d="M15.2351 9.00488C15.4623 9.00455 15.7158 9.00488 16.0006 9.00488C18.279 9.00488 18.5491 9.01308 19.4488 9.05395C20.2808 9.09201 20.7324 9.23101 21.0332 9.34781C21.4314 9.50248 21.7153 9.68735 22.0138 9.98601C22.3125 10.2847 22.4974 10.5691 22.6524 10.9674C22.7692 11.2678 22.9084 11.7194 22.9463 12.5514C22.9871 13.4509 22.9961 13.7212 22.9961 15.9985C22.9961 18.2759 22.9871 18.5461 22.9463 19.4457C22.9082 20.2777 22.7692 20.7293 22.6524 21.0297C22.4977 21.4279 22.3125 21.7115 22.0138 22.01C21.7151 22.3087 21.4316 22.4935 21.0332 22.6482C20.7327 22.7655 20.2808 22.9042 19.4488 22.9423C18.5493 22.9831 18.279 22.992 16.0006 22.992C13.722 22.992 13.4519 22.9831 12.5524 22.9423C11.7204 22.9039 11.2688 22.7648 10.9679 22.648C10.5696 22.4934 10.2851 22.3085 9.98647 22.0098C9.6878 21.7111 9.50294 21.4274 9.34794 21.029C9.23114 20.7285 9.09194 20.277 9.05407 19.445C9.01314 18.5454 9.005 18.2752 9.005 15.9964C9.005 13.7176 9.01314 13.4488 9.05407 12.5493C9.09207 11.7173 9.23114 11.2657 9.34794 10.9649C9.5026 10.5667 9.6878 10.2822 9.98647 9.98355C10.2851 9.68488 10.5696 9.50001 10.9679 9.34495C11.2687 9.22761 11.7204 9.08895 12.5524 9.05075C13.3396 9.01521 13.6447 9.00455 15.2351 9.00275V9.00488ZM20.5557 10.4217C19.9903 10.4217 19.5317 10.8799 19.5317 11.4454C19.5317 12.0107 19.9903 12.4694 20.5557 12.4694C21.121 12.4694 21.5797 12.0107 21.5797 11.4454C21.5797 10.8801 21.121 10.4217 20.5557 10.4217ZM16.0006 11.6182C13.5805 11.6182 11.6183 13.5804 11.6183 16.0005C11.6183 18.4206 13.5805 20.3819 16.0006 20.3819C18.4207 20.3819 20.3821 18.4206 20.3821 16.0005C20.3821 13.5804 18.4207 11.6182 16.0006 11.6182Z" fill="#FAF4EA"/>
<path fill-rule="evenodd" clip-rule="evenodd" d="M16.0007 13.1553C17.5716 13.1553 18.8452 14.4288 18.8452 15.9998C18.8452 17.5707 17.5716 18.8443 16.0007 18.8443C14.4296 18.8443 13.1562 17.5707 13.1562 15.9998C13.1562 14.4288 14.4296 13.1553 16.0007 13.1553Z" fill="#FAF4EA"/>
</g>
<defs>
<clipPath id="clip0_136_626">
<rect width="32" height="32" fill="white"/>
</clipPath>
</defs>
</svg>
